<svg width="32" height="26" viewBox="0 0 32 26" fill="none" xmlns="http://www.w3.org/2000/svg">
<g id="icon_3bars">
<path id="Path" d="M30.3448 11.0591H1.65517C1.43781 11.0591 1.22258 11.102 1.02176 11.1854C0.82095 11.2687 0.638485 11.3909 0.484788 11.545C0.331091 11.699 0.209172 11.8819 0.125992 12.0831C0.0428121 12.2844 0 12.5001 0 12.7179C0 12.9358 0.0428121 13.1515 0.125992 13.3528C0.209172 13.554 0.331091 13.7369 0.484788 13.8909C0.638485 14.045 0.82095 14.1672 1.02176 14.2505C1.22258 14.3339 1.43781 14.3768 1.65517 14.3768H30.3448C30.7838 14.3768 31.2048 14.202 31.5152 13.8909C31.8256 13.5798 32 13.1579 32 12.7179C32 12.278 31.8256 11.856 31.5152 11.545C31.2048 11.2339 30.7838 11.0591 30.3448 11.0591Z" fill="#012C3D"/>
<path id="Path_2" d="M30.3448 0H1.65517C1.21619 0 0.795193 0.174772 0.484788 0.485869C0.174383 0.796966 0 1.2189 0 1.65886C0 2.09882 0.174383 2.52076 0.484788 2.83185C0.795193 3.14295 1.21619 3.31772 1.65517 3.31772H30.3448C30.7838 3.31772 31.2048 3.14295 31.5152 2.83185C31.8256 2.52076 32 2.09882 32 1.65886C32 1.2189 31.8256 0.796966 31.5152 0.485869C31.2048 0.174772 30.7838 0 30.3448 0Z" fill="#012C3D"/>
<path id="Path_3" d="M32 23.777C32 23.3371 31.8256 22.9151 31.5152 22.604C31.2048 22.2929 30.7838 22.1182 30.3448 22.1182H1.65517C1.21619 22.1182 0.795193 22.2929 0.484788 22.604C0.174383 22.9151 0 23.3371 0 23.777C0 24.217 0.174383 24.6389 0.484788 24.95C0.795193 25.2611 1.21619 25.4359 1.65517 25.4359H30.3448C30.7838 25.4359 31.2048 25.2611 31.5152 24.95C31.8256 24.6389 32 24.217 32 23.777Z" fill="#012C3D"/>
</g>
</svg>
