<svg width="29" height="29" viewBox="0 0 29 29" fill="none" xmlns="http://www.w3.org/2000/svg">
<g id="icon_presensi">
<g id="Group">
<path id="Vector" d="M21.6835 18.0173C18.9392 18.0173 16.6945 20.0955 16.4246 22.7685C16.4066 22.9467 16.3977 23.128 16.3977 23.3111C16.3977 23.4864 16.407 23.659 16.4235 23.8299C16.4283 23.8804 16.4379 23.9304 16.4442 23.9808C16.7724 26.5909 18.9838 28.6038 21.6835 28.6038C24.3832 28.6038 26.5982 26.5909 26.927 23.9808C26.9333 23.9304 26.9428 23.8804 26.9476 23.8299C26.9642 23.659 26.9735 23.4864 26.9735 23.3111C26.9735 20.3823 24.6108 18.0173 21.6835 18.0173ZM24.1317 20.8461C24.204 20.844 24.2759 20.8568 24.3431 20.8836C24.4103 20.9105 24.4712 20.9508 24.5222 21.0022C24.6207 21.1013 24.676 21.2354 24.676 21.3753C24.676 21.5151 24.6207 21.6492 24.5222 21.7484L21.5317 24.7446C21.45 24.8267 21.3437 24.8797 21.229 24.8955C21.2143 24.8975 21.1994 24.8988 21.1846 24.8996C21.1103 24.9036 21.036 24.8918 20.9666 24.8651C20.8972 24.8384 20.8342 24.7973 20.7817 24.7446L18.912 22.8729C18.8627 22.8237 18.8237 22.7653 18.797 22.701C18.7703 22.6367 18.7566 22.5678 18.7566 22.4982C18.7566 22.4286 18.7703 22.3597 18.797 22.2954C18.8237 22.2311 18.8627 22.1727 18.912 22.1235C19.007 22.0273 19.1353 21.971 19.2705 21.9664C19.3428 21.9645 19.4148 21.9774 19.482 22.0045C19.5491 22.0315 19.61 22.072 19.6609 22.1235L21.1567 23.6191L23.7764 21.0022C23.8708 20.907 23.9978 20.8512 24.1317 20.8461Z" fill="#325562"/>
<path id="Vector_2" d="M4.23216 12.4631C4.74387 12.4631 5.23101 12.5888 5.70624 12.7308C5.44384 13.3604 5.28994 14.0632 5.28994 14.8413V20.135H0V15.9007C0 14.7365 0.497203 13.9277 1.27678 13.3499C2.05635 12.7721 3.1401 12.4631 4.23216 12.4631Z" fill="#325562"/>
<path id="Vector_3" d="M11.9 10.2131C12.9061 10.2131 13.8633 10.5013 14.7211 10.9087C14.1988 11.6021 13.8603 12.4242 13.78 13.3602C13.7617 13.497 13.7501 13.6374 13.7501 13.7829V21.7204H6.34766V20.6662V14.8413C6.34766 14.6274 6.36176 14.4237 6.38691 14.2274C6.38961 14.2053 6.39529 14.1851 6.39827 14.1633C6.48128 13.5834 6.66691 13.0753 6.93336 12.6264C6.94688 12.6032 6.95863 12.579 6.96848 12.5541C7.24873 12.1055 7.6094 11.7202 8.03866 11.3965C9.0663 10.6217 10.4791 10.2131 11.9 10.2131Z" fill="#325562"/>
<path id="Vector_4" d="M21.6835 9.15381C23.4527 9.15381 25.2207 9.57446 26.4972 10.3651C27.7737 11.1557 28.5632 12.2531 28.5632 13.783V23.8382H27.9847C27.9971 23.6905 28.0173 23.5444 28.025 23.3969C28.0297 23.3685 28.0321 23.3398 28.0322 23.3111C28.0322 23.2958 28.0303 23.2809 28.0302 23.2656C28.0302 23.2642 28.0302 23.2629 28.0302 23.2615C28.0081 20.4244 26.1156 18.0237 23.5284 17.235C23.3339 17.1757 23.1362 17.1246 22.9344 17.0841C22.9273 17.0827 22.9198 17.0824 22.9127 17.081C22.7184 17.0426 22.521 17.0122 22.3208 16.9921C22.3198 16.992 22.3188 16.9911 22.3177 16.991C22.1091 16.9701 21.8976 16.959 21.6834 16.959C21.4648 16.959 21.2488 16.9703 21.0358 16.992C17.8401 17.3181 15.3398 20.0291 15.3398 23.311C15.3398 23.489 15.3513 23.6638 15.3657 23.8381H14.8079V22.2785C14.8081 22.2696 14.8081 22.2606 14.8079 22.2517V13.783C14.8079 13.6107 14.8213 13.4463 14.8409 13.2848C14.8468 13.2369 14.855 13.1902 14.8626 13.1432C14.8803 13.0321 14.9029 12.9237 14.9298 12.8177C14.9435 12.7639 14.956 12.7099 14.9721 12.6575C15.002 12.559 15.0387 12.4642 15.0764 12.3701C15.1238 12.2537 15.1774 12.14 15.2366 12.0301C15.259 11.988 15.2806 11.9452 15.3047 11.904C15.3574 11.815 15.4139 11.7284 15.4741 11.6436C15.4879 11.6241 15.5023 11.605 15.5165 11.5857C15.6568 11.3958 15.8151 11.2156 15.9917 11.0452C16.0052 11.0314 16.018 11.0169 16.0299 11.0018C16.2793 10.7699 16.5618 10.5584 16.8738 10.3651C18.1504 9.57446 19.9142 9.15381 21.6835 9.15381Z" fill="#325562"/>
<path id="Vector_5" d="M4.23212 6.37671C5.11468 6.37671 5.81673 7.08016 5.81673 7.96318C5.81673 8.84619 5.11468 9.55274 4.23212 9.55274C3.34957 9.55274 2.64648 8.84619 2.64648 7.96318C2.64648 7.8528 2.65758 7.74548 2.67851 7.64175C2.82504 6.91565 3.45988 6.37671 4.23212 6.37671Z" fill="#325562"/>
<path id="Vector_6" d="M11.6346 2.14233C11.7263 2.14233 11.8171 2.14676 11.9063 2.15577C11.9073 2.15587 11.9084 2.15567 11.9094 2.15577C11.9976 2.16477 12.0844 2.1787 12.1697 2.19608C13.033 2.37186 13.7406 2.96504 14.0746 3.75774C14.1748 3.99555 14.2407 4.25166 14.2677 4.51945C14.2767 4.60871 14.2812 4.69955 14.2812 4.79127C14.2812 4.88299 14.2767 4.97282 14.2677 5.06205C14.2407 5.32975 14.1747 5.58623 14.0746 5.82376C13.7406 6.61555 13.033 7.20707 12.1697 7.38232C11.9984 7.41711 11.8207 7.43579 11.6388 7.43607C11.5471 7.43607 11.4563 7.43057 11.3671 7.4216C10.2073 7.30487 9.27333 6.4477 9.04493 5.3256C9.00989 5.15297 8.99121 4.97471 8.99121 4.79127C8.99121 4.69955 8.99565 4.60871 9.00464 4.51945C9.01361 4.43019 9.02741 4.34227 9.04492 4.2559C9.27333 3.13311 10.2073 2.27287 11.3671 2.15577C11.455 2.14703 11.5444 2.14233 11.6346 2.14233Z" fill="#325562"/>
<path id="Vector_7" d="M21.6834 0.0256348C21.7934 0.0256348 21.9018 0.0313704 22.0088 0.0421712C23.3996 0.182582 24.5199 1.21347 24.7938 2.55985C24.8359 2.76698 24.8578 2.98066 24.8578 3.20063C24.8578 3.42061 24.8359 3.63532 24.7938 3.84246C24.5199 5.18883 23.3996 6.21972 22.0088 6.36013C21.9032 6.37079 21.7961 6.37653 21.6876 6.37667C21.5776 6.37667 21.4692 6.37093 21.3622 6.36013C21.2552 6.34933 21.1496 6.33367 21.0461 6.31259C19.9074 6.08073 18.9947 5.24265 18.6557 4.14735C18.5633 3.84863 18.5132 3.53059 18.5132 3.20064C18.5132 3.09065 18.5189 2.98211 18.5297 2.87508C18.5513 2.661 18.5941 2.4541 18.6557 2.25496C18.9947 1.15966 19.9074 0.321574 21.0461 0.0897156C21.1496 0.0686378 21.2552 0.0529741 21.3622 0.0421732C21.4678 0.0316412 21.5749 0.0256348 21.6834 0.0256348Z" fill="#325562"/>
</g>
</g>
</svg>
