<svg width="48" height="48" viewBox="0 0 48 48" fill="none" xmlns="http://www.w3.org/2000/svg">
<g id="icon_user circle">
<path id="Vector" d="M13.0046 37.2408V35.0399C13.0046 28.9622 17.9316 24.0352 24.0094 24.0352C30.0871 24.0352 35.0141 28.9622 35.0141 35.0399V37.2408" stroke="#325562" stroke-width="3.30142" stroke-linecap="round"/>
<path id="Vector_2" d="M24.0093 24.035C27.6561 24.035 30.6122 21.0789 30.6122 17.4322C30.6122 13.7855 27.6561 10.8293 24.0093 10.8293C20.3626 10.8293 17.4065 13.7855 17.4065 17.4322C17.4065 21.0789 20.3626 24.035 24.0093 24.035Z" stroke="#325562" stroke-width="3.30142" stroke-linecap="round" stroke-linejoin="round"/>
<path id="Vector_3" d="M24.0094 46.0445C36.1649 46.0445 46.0189 36.1906 46.0189 24.0351C46.0189 11.8796 36.1649 2.02563 24.0094 2.02563C11.854 2.02563 2 11.8796 2 24.0351C2 36.1906 11.854 46.0445 24.0094 46.0445Z" stroke="#325562" stroke-width="3.30142"/>
</g>
</svg>
