<svg width="28" height="28" viewBox="0 0 28 28" fill="none" xmlns="http://www.w3.org/2000/svg">
<g id="icon_penugasan">
<path id="Vector" d="M4.68236 0.0256348C2.10984 0.0256348 0 2.14296 0 4.71682V23.1477C0 25.7216 2.10984 27.8325 4.68236 27.8325H23.1037C25.6762 27.8325 27.786 25.7216 27.786 23.1477V4.71682C27.786 2.14296 25.6762 0.0256348 23.1037 0.0256348H4.68236ZM4.68236 2.55571H23.1037C24.3202 2.55571 25.2637 3.49962 25.2637 4.71682V23.1477C25.2637 24.3649 24.3202 25.3088 23.1037 25.3088H4.68236C3.46578 25.3088 2.52238 24.3649 2.52238 23.1477V4.71682C2.52238 3.49962 3.46578 2.55571 4.68236 2.55571ZM10.4168 6.56167C10.1087 6.58132 9.81853 6.71314 9.60098 6.93224L7.24784 9.31057L6.80083 8.78507C6.58467 8.52901 6.27571 8.36934 5.9419 8.34118C5.60808 8.31302 5.27676 8.41868 5.0208 8.63492C4.76488 8.85119 4.60529 9.16031 4.57715 9.4943C4.549 9.82829 4.65461 10.1598 4.87074 10.4159L6.21015 11.9972C6.32342 12.1304 6.46308 12.2386 6.6203 12.315C6.77751 12.3914 6.94887 12.4343 7.12352 12.4411C7.29817 12.4478 7.47233 12.4183 7.63497 12.3542C7.79761 12.2902 7.9452 12.1931 8.0684 12.069L11.3922 8.71319C11.6282 8.47531 11.7601 8.15336 11.7589 7.81817C11.7577 7.48298 11.6234 7.162 11.3857 6.92585C11.259 6.80012 11.1072 6.70266 10.9401 6.63989C10.7731 6.57712 10.5948 6.55046 10.4168 6.56167ZM14.1013 8.39215C13.9349 8.39178 13.7699 8.42435 13.6161 8.48797C13.4622 8.5516 13.3224 8.64503 13.2048 8.76289C13.0871 8.88075 12.9939 9.02072 12.9305 9.17474C12.8671 9.32876 12.8348 9.49381 12.8354 9.66038C12.8356 9.82641 12.8686 9.99077 12.9324 10.1441C12.9962 10.2973 13.0895 10.4366 13.2071 10.5537C13.3246 10.6709 13.4641 10.7638 13.6176 10.827C13.771 10.8902 13.9354 10.9226 14.1013 10.9222H21.951C22.2854 10.9217 22.6058 10.7886 22.8422 10.552C23.0786 10.3155 23.2117 9.99488 23.2122 9.66038C23.2128 9.49421 23.1806 9.32956 23.1175 9.17585C23.0544 9.02213 22.9616 8.88238 22.8445 8.76458C22.7274 8.64679 22.5882 8.55326 22.4348 8.48935C22.2815 8.42544 22.1171 8.39241 21.951 8.39215H14.1013ZM10.5668 15.4201C10.3886 15.4106 10.2104 15.439 10.0439 15.5034C9.87739 15.5679 9.72644 15.6669 9.60098 15.7939L7.24784 18.1722L6.80083 17.6419C6.58399 17.3866 6.27468 17.2278 5.94089 17.2006C5.6071 17.1733 5.27615 17.2798 5.0208 17.4966C4.76488 17.7129 4.60529 18.022 4.57715 18.356C4.54901 18.69 4.65461 19.0215 4.87074 19.2776L6.21015 20.8525C6.32285 20.9862 6.46206 21.0951 6.61897 21.1722C6.77588 21.2493 6.94709 21.293 7.12175 21.3005C7.29641 21.308 7.47073 21.2792 7.63368 21.2158C7.79663 21.1524 7.94466 21.0559 8.0684 20.9324L11.3922 17.5685C11.6277 17.3307 11.7593 17.0091 11.7581 16.6743C11.7569 16.3395 11.6229 16.0188 11.3856 15.7828C11.1661 15.5659 10.8749 15.4369 10.5668 15.4201ZM14.1013 17.2554C13.9354 17.255 13.771 17.2874 13.6176 17.3506C13.4641 17.4138 13.3246 17.5067 13.2071 17.6239C13.0895 17.7411 12.9962 17.8803 12.9324 18.0336C12.8686 18.1869 12.8356 18.3512 12.8354 18.5172C12.8356 18.6833 12.8686 18.8476 12.9324 19.0009C12.9962 19.1542 13.0895 19.2934 13.2071 19.4106C13.3246 19.5278 13.4641 19.6206 13.6176 19.6839C13.771 19.7471 13.9354 19.7795 14.1013 19.7791H21.951C22.2854 19.7786 22.6058 19.6454 22.8422 19.4089C23.0786 19.1724 23.2117 18.8517 23.2122 18.5172C23.2117 18.1827 23.0786 17.8621 22.8422 17.6256C22.6058 17.3891 22.2854 17.2559 21.951 17.2554H14.1013Z" fill="#325562"/>
</g>
</svg>
