<svg width="37" height="37" viewBox="0 0 37 37" fill="none" xmlns="http://www.w3.org/2000/svg">
<g id="icon_peserta">
<g id="Group">
<path id="Vector" d="M6.55921 21.8843C7.99372 21.8843 9.17359 20.6967 9.17359 19.2512C9.17359 17.8065 7.99408 16.6182 6.55921 16.6182C5.1247 16.6182 3.94482 17.8065 3.94482 19.2512C3.94482 20.6967 5.12434 21.8843 6.55921 21.8843Z" fill="#325562"/>
<path id="Vector_2" d="M8.59919 22.8474C7.99334 23.2008 7.292 23.3935 6.55883 23.3935C5.82566 23.3935 5.12432 23.2008 4.51847 22.8474C2.92444 23.458 1.80859 24.9996 1.80859 26.8291V27.5037C1.80859 27.7285 1.99993 27.9212 2.2231 27.9212H10.7036V26.8298C10.7036 26.2517 10.7991 25.6735 10.9586 25.1282C10.5122 24.0681 9.65138 23.2328 8.59919 22.8474Z" fill="#325562"/>
<path id="Vector_3" d="M11.4689 11.8024C12.9034 11.8024 14.0833 10.6141 14.0833 9.16931C14.0833 7.72382 12.9037 6.53589 11.4689 6.53589C10.0344 6.53589 8.85449 7.72419 8.85449 9.16931C8.85449 10.6141 10.034 11.8024 11.4689 11.8024Z" fill="#325562"/>
<path id="Vector_4" d="M22.4679 11.8024C23.9024 11.8024 25.0823 10.6141 25.0823 9.16931C25.0823 7.72382 23.9028 6.53589 22.4679 6.53589C21.0334 6.53589 19.8535 7.72419 19.8535 9.16931C19.8535 10.6141 21.033 11.8024 22.4679 11.8024Z" fill="#325562"/>
<path id="Vector_5" d="M13.7002 21.7882C13.158 21.0501 12.8394 20.1828 12.8394 19.2513C12.8394 17.3253 14.1466 15.7192 15.9319 15.2696C15.5174 14.1462 14.6247 13.2147 13.4771 12.7976C12.8712 13.151 12.1699 13.3433 11.4367 13.3433C10.7035 13.3433 10.0018 13.151 9.39598 12.7976C8.31196 13.2151 7.45147 14.0814 7.00513 15.1735C9.04549 15.3986 10.6395 17.1643 10.6395 19.283C10.6395 20.2145 10.3205 21.0818 9.81049 21.7878C10.5755 22.2053 11.245 22.8151 11.755 23.5218C12.2657 22.8158 12.9352 22.2057 13.7002 21.7882Z" fill="#325562"/>
<path id="Vector_6" d="M14.3379 19.2512C14.3379 20.6967 15.5174 21.8843 16.9523 21.8843C18.3868 21.8843 19.5667 20.6967 19.5667 19.2512C19.5667 17.8065 18.3871 16.6182 16.9523 16.6182C15.5178 16.6513 14.3379 17.8068 14.3379 19.2512Z" fill="#325562"/>
<path id="Vector_7" d="M22.6935 21.7297C22.6913 21.3272 22.9655 20.976 23.3547 20.8857C23.4237 20.8696 23.4925 20.8543 23.5612 20.8416C23.8712 20.7819 24.184 20.7505 24.4926 20.7483H24.5306C25.5169 20.7483 26.3843 21.0347 27.2115 21.364C27.4451 20.5746 27.5775 19.6693 27.5775 18.7051C27.5775 17.2115 27.2581 15.8556 26.7409 14.86C26.2682 13.9016 25.4652 13.1457 24.4763 12.7654C23.8704 13.1187 23.1691 13.3114 22.4359 13.3114C21.7028 13.3114 21.0011 13.1187 20.3952 12.7654C19.2794 13.2145 18.3867 14.114 17.9722 15.2382C19.7257 15.6873 21.0329 17.3251 21.0329 19.2191C21.0329 20.1505 20.7139 21.0179 20.2039 21.7239C20.7855 22.0408 21.3118 22.47 21.7545 22.9679V22.8696C21.7545 22.5803 21.8999 22.3097 22.1404 22.1505C22.1748 22.1283 22.2095 22.1089 22.246 22.0915C22.3867 22.0252 22.5426 21.9989 22.6953 22.015L22.6935 21.7297Z" fill="#325562"/>
<path id="Vector_8" d="M18.9926 22.8474C18.3868 23.2008 17.6854 23.3935 16.9523 23.3935C16.2191 23.3935 15.5177 23.2008 14.9115 22.8474C13.3175 23.458 12.2017 24.9992 12.2017 26.8291V27.9212H21.7021V26.8291C21.7025 24.9996 20.5866 23.458 18.9926 22.8474Z" fill="#325562"/>
<path id="Vector_9" d="M28.1179 22.6606C28.0858 22.6479 28.0536 22.6355 28.0214 22.6227C27.9791 22.606 27.9367 22.5892 27.8948 22.5717C27.8771 22.5644 27.859 22.5579 27.8409 22.5499C27.6926 22.4901 27.5457 22.4289 27.4 22.3688C27.2455 22.3047 27.0925 22.242 26.9399 22.1801C26.933 22.1779 26.9265 22.175 26.92 22.1725C26.9044 22.1659 26.8889 22.1601 26.8733 22.1535C26.8621 22.1492 26.8505 22.1448 26.8393 22.1404C26.8082 22.128 26.7771 22.116 26.746 22.1033C26.7409 22.1011 26.7359 22.0996 26.7308 22.0978C26.6708 22.0748 26.6111 22.0515 26.5514 22.0293C26.5369 22.0242 26.5225 22.0187 26.508 22.0133C26.4831 22.0042 26.4577 21.9951 26.4324 21.986C26.4132 21.979 26.3937 21.9721 26.3745 21.9659C26.351 21.9575 26.3279 21.9492 26.3044 21.9408C26.2812 21.9331 26.2577 21.9255 26.2342 21.9171C26.2143 21.9109 26.1941 21.904 26.1738 21.8971C26.1326 21.8836 26.091 21.8705 26.0494 21.8581C26.0335 21.853 26.0175 21.8486 26.0013 21.8435C25.9716 21.8344 25.9423 21.826 25.9127 21.8177C25.8957 21.8129 25.879 21.8082 25.862 21.8031C25.8313 21.7951 25.8002 21.7863 25.7691 21.7783C25.7546 21.7747 25.7405 21.7707 25.7264 21.7674C25.6349 21.7437 25.5426 21.7226 25.4497 21.7036C25.4385 21.7014 25.4272 21.6996 25.4164 21.6974C25.3791 21.6898 25.3422 21.6829 25.3046 21.6763C25.2934 21.6741 25.2818 21.6719 25.2706 21.6705C25.2272 21.6628 25.1838 21.6566 25.1404 21.6504C25.1368 21.6497 25.1328 21.649 25.1288 21.649C25.0793 21.6417 25.029 21.6355 24.9784 21.6308C24.9748 21.6308 24.9711 21.63 24.9675 21.63C24.9227 21.6249 24.8775 21.6217 24.8322 21.618C24.8225 21.6177 24.8127 21.6169 24.8026 21.6162C24.7606 21.614 24.7187 21.6118 24.6764 21.6104C24.6684 21.6096 24.6601 21.6096 24.6521 21.6089C24.6015 21.6075 24.5505 21.6067 24.4991 21.6075C24.3805 21.6082 24.2604 21.6147 24.1381 21.6257C24.1009 21.6293 24.064 21.633 24.0267 21.6373C23.8705 21.6563 23.7106 21.6836 23.5471 21.7215L23.5497 22.0625L23.5511 22.2828L23.5547 22.7881L23.5623 23.8897L23.5768 25.9691L23.597 28.9059V28.9067C23.6571 28.8979 23.716 28.8899 23.7746 28.883C23.7779 28.8822 23.7815 28.8822 23.7851 28.8815C23.8285 28.8761 23.8712 28.872 23.9142 28.8669C23.9367 28.8644 23.9595 28.8622 23.9815 28.8593C24.0195 28.8557 24.0575 28.852 24.0947 28.8487C24.1211 28.8469 24.1472 28.844 24.1732 28.8418C24.2083 28.8389 24.243 28.836 24.2778 28.8342C24.3052 28.832 24.3331 28.8302 24.3606 28.8287C24.3935 28.8265 24.4264 28.8243 24.4586 28.8229C24.4872 28.8214 24.5158 28.82 24.544 28.8192C24.5744 28.8178 24.6051 28.8163 24.6351 28.8156C24.6651 28.8141 24.6952 28.8141 24.7248 28.8138C24.7527 28.813 24.7809 28.8123 24.8084 28.8123C24.8453 28.8123 24.8811 28.8123 24.9172 28.8123C24.9502 28.813 24.9831 28.813 25.0153 28.8138C25.0561 28.8141 25.0967 28.8156 25.1364 28.817C25.1592 28.8178 25.1817 28.8192 25.2044 28.82C25.2359 28.8214 25.2677 28.8229 25.2985 28.8251C25.322 28.8265 25.3451 28.828 25.3683 28.8302C25.3983 28.832 25.4276 28.8342 25.4569 28.8363C25.4801 28.8385 25.5028 28.8407 25.5256 28.8429C25.5546 28.8458 25.5831 28.8484 25.6117 28.8509C25.6341 28.8531 25.6558 28.856 25.6779 28.8586C25.7068 28.8615 25.7354 28.8655 25.7636 28.8688C25.7846 28.8717 25.8052 28.8746 25.8258 28.8771C25.8562 28.8812 25.8859 28.8852 25.9159 28.8903C25.934 28.8932 25.9521 28.8961 25.9694 28.8983C26.0085 28.9048 26.0468 28.9118 26.0848 28.9187C26.0931 28.9201 26.1015 28.9216 26.1098 28.923C26.1554 28.9318 26.2002 28.9413 26.2451 28.95C26.261 28.9536 26.2765 28.9573 26.2924 28.9613C26.3214 28.9675 26.3503 28.9737 26.3789 28.9806C26.3966 28.985 26.4147 28.989 26.4324 28.9934C26.4581 29.0003 26.4838 29.0065 26.5091 29.013C26.5275 29.0178 26.546 29.0225 26.5644 29.0283C26.5887 29.0345 26.6129 29.0414 26.6368 29.0476C26.6552 29.0535 26.6737 29.0582 26.6918 29.0637C26.7153 29.0709 26.7388 29.0779 26.7623 29.0855C26.78 29.0913 26.7977 29.0968 26.8155 29.1023C26.8393 29.1099 26.8628 29.1176 26.8864 29.1252C26.9026 29.1307 26.9193 29.1362 26.9355 29.142C26.9627 29.1507 26.9894 29.1609 27.0162 29.1704C27.0321 29.1762 27.0477 29.1813 27.0636 29.1872C27.0972 29.1995 27.1305 29.2123 27.1634 29.225C27.1811 29.232 27.1989 29.2389 27.2162 29.2465C27.2358 29.2542 27.2553 29.2622 27.2748 29.2695C27.294 29.2771 27.3128 29.2855 27.332 29.2932C27.3493 29.3008 27.3663 29.3077 27.3837 29.3154C27.4032 29.3238 27.4231 29.3329 27.4427 29.3412C27.4582 29.3482 27.4738 29.3551 27.4893 29.362C27.5099 29.3711 27.5305 29.3802 27.5504 29.3901C27.5638 29.3963 27.5772 29.4024 27.5902 29.409C27.6123 29.4192 27.634 29.429 27.6557 29.4396C27.6651 29.4447 27.6749 29.4491 27.6843 29.4534C27.7411 29.4811 27.7971 29.5092 27.8521 29.5376C27.9928 29.6101 28.1281 29.6844 28.2594 29.7598V29.7591V22.7145C28.2319 22.7043 28.2048 22.6938 28.1769 22.6832C28.1577 22.6759 28.1378 22.6679 28.1179 22.6606Z" fill="#325562"/>
<path id="Vector_10" d="M34.3617 29.9432L34.3581 24.8935L34.357 22.8706L33.8553 23.0899V23.0906L33.8191 28.1761L33.8123 29.1695C33.8123 29.1768 33.8112 29.184 33.8104 29.1913C33.8101 29.1964 33.8101 29.2001 33.8094 29.2044C33.7895 29.3272 33.6748 29.4099 33.5533 29.3899C33.4701 29.3767 33.3887 29.364 33.3088 29.3527C33.3015 29.3512 33.2943 29.3505 33.2871 29.3498C33.2154 29.3396 33.1453 29.3301 33.0762 29.3221C33.0657 29.3206 33.0556 29.3199 33.0454 29.3185C32.7402 29.282 32.4566 29.2638 32.1911 29.2587C32.1882 29.2587 32.185 29.2587 32.1821 29.258C32.1437 29.258 32.1054 29.2573 32.0678 29.2573C32.0591 29.2573 32.05 29.2573 32.041 29.2573C32.0052 29.2573 31.9697 29.258 31.9347 29.258C31.9253 29.2587 31.9159 29.2587 31.9061 29.2587C31.8706 29.2602 31.8356 29.2609 31.8005 29.2624C31.7961 29.2624 31.7918 29.2624 31.7874 29.2624C31.676 29.2671 31.5683 29.274 31.4634 29.2831C31.4525 29.2846 31.4417 29.2853 31.4308 29.2868C31.403 29.289 31.3758 29.2919 31.3483 29.2951C31.3339 29.2966 31.3198 29.2977 31.3053 29.2999C31.2796 29.3028 31.2543 29.3057 31.229 29.309C31.2134 29.3112 31.1982 29.3134 31.183 29.3152C31.1588 29.3188 31.1346 29.3225 31.1103 29.3257C31.0948 29.3287 31.0789 29.3305 31.0633 29.3334C31.0402 29.337 31.017 29.341 30.9942 29.3447C30.9584 29.3509 30.9237 29.3571 30.8886 29.364C30.8702 29.3676 30.8521 29.3716 30.834 29.3753C30.8141 29.3797 30.7942 29.3833 30.7747 29.3877C30.757 29.392 30.7396 29.3953 30.7219 29.3993C30.702 29.4044 30.6817 29.4092 30.6618 29.4132C30.6456 29.4175 30.6293 29.4216 30.613 29.4259C30.5917 29.4307 30.5707 29.4361 30.5493 29.442C30.5349 29.446 30.5208 29.4496 30.5063 29.4536C30.481 29.4609 30.456 29.4675 30.4311 29.4747C30.4217 29.4777 30.4119 29.4802 30.4021 29.4828C30.3667 29.4933 30.332 29.5046 30.2972 29.5155C30.2958 29.5155 30.294 29.5163 30.2925 29.517C30.2596 29.5276 30.2267 29.5389 30.1941 29.5498C30.1869 29.552 30.18 29.5549 30.1728 29.5571C30.1453 29.5665 30.1182 29.5767 30.0911 29.5862C30.0838 29.5891 30.0766 29.592 30.0697 29.5939C30.0412 29.6041 30.0129 29.6154 29.9854 29.6259C29.9807 29.6281 29.9768 29.6292 29.9721 29.6314C29.7333 29.725 29.5113 29.8306 29.2979 29.9432H34.3617Z" fill="#325562"/>
<path id="Vector_11" d="M30.3547 29.0413C30.4874 29.0042 30.6256 28.971 30.7688 28.9419H30.7699C31.2738 28.8395 31.8474 28.79 32.5177 28.825C32.6443 28.8315 32.7741 28.8403 32.9079 28.8526C32.917 28.8541 32.926 28.8541 32.9354 28.8556C32.9741 28.8592 33.0136 28.8639 33.0526 28.8679C33.1557 28.8792 33.2606 28.8916 33.3684 28.9069L33.4176 21.8613L33.4187 21.7232C33.2975 21.6948 33.1789 21.6722 33.0617 21.6547C33.0114 21.6471 32.9618 21.6409 32.9123 21.6351C32.7607 21.6179 32.6124 21.6088 32.4663 21.6081C32.3943 21.6074 32.3231 21.6088 32.2518 21.6117C32.2467 21.6125 32.242 21.6125 32.2366 21.6125C32.1693 21.6161 32.1024 21.6205 32.0362 21.6263C32.0276 21.6278 32.0182 21.6285 32.0091 21.6292C31.9447 21.6354 31.8807 21.6431 31.817 21.6522C31.8073 21.6536 31.7975 21.6551 31.7877 21.6565C31.7237 21.6657 31.6601 21.6762 31.5971 21.6879C31.5899 21.6893 31.5827 21.6908 31.5751 21.6922C31.511 21.7046 31.447 21.7181 31.3834 21.7327C31.3812 21.7327 31.379 21.7334 31.3769 21.7341C31.3132 21.7487 31.2499 21.7647 31.187 21.7815C31.1776 21.7837 31.1678 21.7862 31.1584 21.7884C31.0983 21.8044 31.039 21.8219 30.9797 21.8394C30.9674 21.8431 30.9555 21.8471 30.9432 21.8507C30.8849 21.8686 30.8267 21.8868 30.7688 21.9054C30.7565 21.9097 30.7439 21.9137 30.7316 21.9177C30.673 21.9374 30.6147 21.9574 30.5565 21.9786C30.5464 21.9822 30.5366 21.9855 30.5265 21.9888C30.4704 22.0092 30.4144 22.0292 30.3587 22.0507C30.3511 22.0536 30.3438 22.0565 30.3362 22.0591C30.2776 22.0817 30.2194 22.1035 30.1608 22.1268C30.1474 22.1319 30.134 22.137 30.1207 22.1429C30.0657 22.1647 30.01 22.1866 29.955 22.2092C29.9376 22.2161 29.9199 22.223 29.9026 22.231C29.8501 22.2518 29.798 22.2733 29.7456 22.2951C29.7184 22.3061 29.6913 22.3174 29.6642 22.3287C29.6392 22.3389 29.6143 22.3487 29.589 22.3593C29.4978 22.3975 29.4063 22.435 29.3141 22.4729C29.3123 22.4736 29.3101 22.4744 29.3083 22.4758C29.2464 22.5006 29.1846 22.5261 29.122 22.5509C29.1122 22.5552 29.1025 22.5592 29.0923 22.5636C28.9719 22.6124 28.85 22.6605 28.727 22.7064C28.7198 22.7093 28.7126 22.7122 28.7053 22.7144V22.7152V29.3237V29.7604C28.8373 29.6858 28.9723 29.6115 29.1126 29.539C29.4819 29.3488 29.8863 29.1732 30.3522 29.0432C30.3536 29.0421 30.354 29.0421 30.3547 29.0413Z" fill="#325562"/>
<path id="Vector_12" d="M26.9811 29.6276C26.1235 29.2924 25.0525 29.1201 23.4111 29.3908C23.4002 29.3923 23.3883 29.3937 23.3767 29.3937C23.346 29.3937 23.3163 29.3872 23.2899 29.3762C23.2096 29.3427 23.1528 29.2633 23.1521 29.17L23.138 27.1523L23.113 23.4988L23.1112 23.2362L23.1105 23.0916L22.9373 23.0154L22.7018 22.9127L22.6374 22.865C22.6331 22.8694 22.6284 22.8741 22.6251 22.8785L22.6092 22.8712L22.6045 29.9438V29.9445H26.6208H27.6665C27.4499 29.829 27.2242 29.7223 26.9811 29.6276Z" fill="#325562"/>
</g>
</g>
</svg>
